PathFileType	4	(X/Y/Z)	static_1_OpenSim.trc.	Data\Walking\Mocap\Sub011\Generated_files\Files_W_HJCs																																																																																																																																																															
DataRate	CameraRate	NumFrames	NumMarkers	Units	OrigDataRate	OrigDataStartFrame	OrigNumFrames																																																																																																																																																												
100	100	4	54	mm	100	430	491																																																																																																																																																												
Frame#	Time	R.ASIS			R.PSIS			S2			L.PSIS			L.ASIS			R.TH1			R.TH2			R.TH3			R.Knee			R.SH1			R.SH2			R.SH3			R.SH4			R.Ankle			R.MAnkle			R.Heel			R.LatHeel			R.PT			R.MT5			R.Toe			R.MT1			R.ProxMet1			R.ST			R.MedHeel			L.TH1			L.TH2			L.TH3			L.TH4			L.Knee			L.SH1			L.SH2			L.SH3			L.Ankle			L.MAnkle			L.Heel			L.LatHeel			L.PT			L.MT5			L.Toe			L.MT1			L.ProxMet1			L.ST			L.MedHeel			T.Med			T.Lat			T.Bot			R.Acr			L.Acr			C7			Clav			R.MKnee			L.MKnee			R_HJC			L_HJC		
		X1	Y1	Z1	X2	Y2	Z2	X3	Y3	Z3	X4	Y4	Z4	X5	Y5	Z5	X6	Y6	Z6	X7	Y7	Z7	X8	Y8	Z8	X9	Y9	Z9	X10	Y10	Z10	X11	Y11	Z11	X12	Y12	Z12	X13	Y13	Z13	X14	Y14	Z14	X15	Y15	Z15	X16	Y16	Z16	X17	Y17	Z17	X18	Y18	Z18	X19	Y19	Z19	X20	Y20	Z20	X21	Y21	Z21	X22	Y22	Z22	X23	Y23	Z23	X24	Y24	Z24	X25	Y25	Z25	X26	Y26	Z26	X27	Y27	Z27	X28	Y28	Z28	X29	Y29	Z29	X30	Y30	Z30	X31	Y31	Z31	X32	Y32	Z32	X33	Y33	Z33	X34	Y34	Z34	X35	Y35	Z35	X36	Y36	Z36	X37	Y37	Z37	X38	Y38	Z38	X39	Y39	Z39	X40	Y40	Z40	X41	Y41	Z41	X42	Y42	Z42	X43	Y43	Z43	X44	Y44	Z44	X45	Y45	Z45	X46	Y46	Z46	X47	Y47	Z47	X48	Y48	Z48	X49	Y49	Z49	X50	Y50	Z50	X51	Y51	Z51	X52	Y52	Z52	X53	Y53	Z53	X54	Y54	Z54
																																																																																																																																																																			
430	4.29	1230.946	995.217	-426.437	1057.031	1008.9	-494.256	1056.846	990.924	-552.184	1063.468	1006.093	-602.899	1251.684	984.363	-653.22	1259.563	700.304	-412.129	1203.069	700.54	-351.817	1184.901	593.436	-370.943	1148.973	465.859	-384.909	1143.81	353.866	-378.305	1137.015	241.599	-385.779	1061.12	360.566	-375.551	1057.221	246.673	-374.642	1090.74	91.26	-406.743	1104.59	98.908	-480.69	1022.743	65.752	-450.644	1051.001	42.266	-406.986	1122.115	41.599	-389.923	1212.256	35.32	-378.806	1283.244	44.95	-432.229	1230.154	44.599	-474.503	1190.643	63.965	-472.621	1130.763	41.965	-488.19	1059.398	38.729	-485.608	1239.627	721.774	-720.804	1219.654	616.357	-702.037	1159.982	726.726	-752.007	1141.85	621.037	-724.939	1152.366	449.398	-695.617	1166.112	361.656	-693.814	1091.054	373.362	-726.604	1076.084	264.73	-723.229	1097.473	79.444	-690.295	1113.719	101.03	-612.418	1028.632	61.863	-649.485	1055.753	35.402	-691.341	1123.676	37.758	-704.851	1215.698	29.645	-715.996	1291.075	41.742	-657.825	1233.468	41.972	-618.534	1185.976	66.548	-618.754	1137.905	38.155	-606.265	1078.521	40.479	-610.79	1005.796	261.106	-487.737	1003.007	263.612	-450.573	1020.197	230.923	-460.328	1125.261	1394.217	-397.732	1159.93	1385.293	-732.536	1088.177	1422.035	-567.452	1219.626	1347.496	-555.582	1135.762	463.674	-503.426	1136.808	458.754	-592.8	1184.052	854.137	-446.555	1194.052	851.133	-634.784
431	4.3	1231.008	995.197	-426.434	1057.134	1008.906	-494.331	1056.972	990.924	-552.191	1063.601	1006.074	-602.984	1251.774	984.335	-653.238	1259.571	700.27	-412.136	1203.077	700.569	-351.817	1184.875	593.431	-370.943	1148.879	465.85	-384.91	1143.727	353.899	-378.295	1136.987	241.636	-385.738	1061.062	360.582	-375.551	1057.158	246.708	-374.618	1090.779	91.227	-406.799	1104.645	98.903	-480.714	1022.663	65.746	-450.513	1051.002	42.259	-407.034	1122.058	41.827	-389.888	1212.213	35.319	-378.805	1283.211	44.934	-432.262	1230.13	44.574	-474.514	1190.625	64	-472.602	1130.738	42.014	-488.177	1059.437	38.727	-485.614	1239.648	721.737	-720.819	1219.694	616.345	-702.051	1159.249	726.615	-752.415	1141.902	621.034	-724.945	1152.383	449.357	-695.685	1166.087	361.643	-693.798	1091.073	373.33	-726.57	1076.119	264.746	-723.258	1097.497	79.461	-690.273	1113.719	101.032	-612.407	1028.631	61.856	-649.537	1055.765	35.407	-691.365	1123.651	37.757	-704.856	1215.696	29.665	-715.995	1291.056	41.769	-657.816	1233.458	41.983	-618.533	1185.952	66.565	-618.728	1137.904	38.129	-606.315	1078.476	40.506	-610.832	1005.749	261.1	-487.747	1002.985	263.601	-450.595	1020.128	230.932	-460.336	1125.351	1394.208	-397.76	1160.032	1385.279	-732.568	1088.267	1422.032	-567.493	1219.69	1347.502	-555.585	1135.693	463.662	-503.348	1136.829	458.706	-592.822	1184.115	854.127	-446.567	1194.155	851.105	-634.794
432	4.31	1231.061	995.194	-426.431	1057.227	1008.913	-494.351	1057.122	990.942	-552.227	1063.746	1006.086	-603.101	1251.898	984.347	-653.252	1259.569	700.234	-412.114	1203.026	700.52	-351.801	1184.835	593.417	-370.909	1148.799	465.899	-384.88	1143.609	353.944	-378.285	1136.943	241.647	-385.705	1060.96	360.605	-375.556	1057.079	246.728	-374.64	1090.73	91.234	-406.713	1104.631	98.924	-480.674	1022.628	65.699	-450.497	1051.004	42.256	-406.97	1122.004	41.813	-389.844	1212.182	35.329	-378.796	1283.167	44.964	-432.225	1230.123	44.631	-474.49	1190.456	63.902	-472.411	1130.667	42.005	-488.179	1059.399	38.717	-485.656	1239.715	721.747	-720.85	1219.736	616.357	-702.068	1159.369	726.638	-752.429	1141.99	621.043	-724.951	1152.409	449.37	-695.663	1166.082	361.624	-693.831	1091.078	373.356	-726.623	1076.132	264.749	-723.273	1097.491	79.483	-690.285	1113.702	101.033	-612.405	1028.633	61.856	-649.559	1055.782	35.393	-691.337	1123.64	37.768	-704.864	1215.66	29.658	-715.984	1291.032	41.755	-657.801	1233.439	41.996	-618.533	1185.871	66.499	-618.718	1137.896	38.162	-606.315	1078.58	40.537	-610.784	1005.661	261.117	-487.786	1002.897	263.636	-450.614	1020.08	230.935	-460.352	1125.533	1394.126	-397.616	1160.036	1385.249	-732.609	1088.347	1422.008	-567.532	1220.256	1347.874	-555.501	1135.659	463.688	-503.325	1136.83	458.721	-592.843	1184.191	854.127	-446.597	1194.289	851.117	-634.821
433	4.32	1231.134	995.204	-426.442	1057.344	1008.944	-494.349	1057.261	990.974	-552.261	1063.863	1006.089	-603.098	1252.017	984.385	-653.211	1259.56	700.221	-412.119	1203.038	700.554	-351.81	1184.815	593.447	-370.965	1148.689	465.891	-384.916	1143.515	354.009	-378.276	1136.912	241.663	-385.712	1060.861	360.625	-375.57	1056.993	246.685	-374.644	1090.78	91.218	-406.775	1104.537	98.862	-480.766	1022.712	65.8	-450.645	1050.956	42.261	-406.945	1122.027	41.618	-389.916	1212.18	35.369	-378.785	1283.172	44.975	-432.269	1230.135	44.666	-474.511	1190.582	64.024	-472.598	1130.646	42.018	-488.196	1059.404	38.78	-485.639	1239.838	721.85	-720.817	1219.803	616.369	-702.076	1159.515	726.658	-752.372	1142.107	621.053	-724.978	1152.469	449.416	-695.705	1166.171	361.745	-693.809	1091.105	373.367	-726.622	1076.137	264.773	-723.268	1097.511	79.503	-690.286	1113.695	101.056	-612.407	1028.615	61.888	-649.588	1055.737	35.416	-691.298	1123.652	37.796	-704.862	1215.641	29.694	-716.017	1291.036	41.767	-657.817	1233.434	42.04	-618.512	1185.842	66.486	-618.743	1137.877	38.183	-606.317	1078.491	40.595	-610.752	1005.593	261.139	-487.777	1002.838	263.666	-450.63	1020.022	230.945	-460.374	1125.614	1394.13	-397.631	1160.154	1385.267	-732.597	1088.393	1422.043	-567.555	1219.835	1347.483	-555.614	1135.56	463.697	-503.302	1136.867	458.747	-592.865	1184.289	854.144	-446.597	1194.419	851.146	-634.819
